<?xml version="1.0" encoding="UTF-8"?>
<svg id="_レイヤー_2" data-name="レイヤー 2" xmlns="http://www.w3.org/2000/svg" viewBox="0 0 1169.52 438.08">
  <defs>
    <style>
      .cls-1 {
        fill: #094;
      }

      .cls-1, .cls-2 {
        stroke-width: 0px;
      }

      .cls-3 {
        fill: #fff;
      }

      .cls-3, .cls-4, .cls-5, .cls-6 {
        stroke-miterlimit: 10;
        stroke-width: 12px;
      }

      .cls-3, .cls-6 {
        stroke: #231815;
      }

      .cls-4, .cls-5 {
        stroke: #fff;
      }

      .cls-4, .cls-7 {
        fill: #231815;
      }

      .cls-2 {
        fill: #040000;
      }

      .cls-5 {
        fill: #c30d23;
      }

      .cls-6 {
        fill: none;
      }

      .cls-7 {
        font-family: UDDigiKyokashoNK-B, 'UD Digi Kyokasho NK-B';
        font-size: 91.58px;
      }
    </style>
  </defs>
  <g id="_レイヤー_1-2" data-name="レイヤー 1">
    <rect class="cls-3" x="149.6" y="6" width="655.9" height="426.08"/>
    <polygon class="cls-1" points="431.39 228.27 286.25 424.05 576.53 424.05 431.39 228.27"/>
    <polygon class="cls-1" points="572.23 150.09 369.12 424.05 775.33 424.05 572.23 150.09"/>
    <circle class="cls-5" cx="309.76" cy="163.24" r="73.07"/>
    <polygon class="cls-4" points="8.3 216.17 98.83 310.96 98.83 121.39 8.3 216.17"/>
    <polygon class="cls-4" points="946.81 219.04 856.28 124.26 856.28 313.83 946.81 219.04"/>
    <path class="cls-2" d="m907.93,255.58c-3,3.22-4.62,7.57-4.26,11.55l.18,2.23,17.96,35.43,17.99,35.33-2.08,2.67c-2.58,3.4-4.29,8.36-4.19,12.32.13,4.34.99,7.1,3.58,11.7,2.62,4.5,4.82,7.23,8.99,10.7,5.4,4.61,8.7,6.36,21.5,11.35,11.71,4.58,16.74,7.21,19.32,10.38,2.32,2.82,5.45,2.66,6.76-.41.59-1.34.56-1.41-.77-3.69-2.78-4.66-7.53-7.36-25.58-14.47-10.66-4.24-14.54-6.5-19.79-12.07-1.9-1.99-2.71-3.1-4.3-6.21-2.31-4.51-2.74-6.93-1.72-10.57.62-2.24,2.91-6.05,4.05-6.64.83-.42,2.56-2.99,2.58-3.72-.04-.38-8.38-17.18-18.58-37.43-20.65-40.85-19.19-37.52-17.88-40.91,1.65-4.13,7.18-6,10.91-3.57,1.25.72,1.54,1.29,15.11,27.51l13.92,26.76,1.57.4c2.21.55,3.86-.29,4.47-2.37.47-1.44.43-1.5-1.94-6.46-2.57-5.49-2.74-6.29-1.8-9.01,1.06-2.94,5.02-5.21,8.22-4.6,2.81.48,3.97,1.65,7.02,7.14,2.72,4.85,2.76,4.92,4.03,5.23,1.73.4,3.66-.51,4.32-2.21.47-1.12.4-1.41-1.13-4.87-1.86-4.26-2.1-5.98-1.09-8.09.63-1.28,1.07-1.67,3.35-3,3.52-2.04,5.18-1.93,7.72.22,1.61,1.42,2.16,2.18,5.14,7.7l3.4,6.19,1.34.43c1.09.4,1.6.3,2.8-.31.76-.39,1.58-1.13,1.71-1.51.47-1.12.26-3.1-.62-4.81-.97-1.9-1.12-3.91-.4-5.16.82-1.38,4.43-3.87,6.37-4.3,2.1-.43,4.37.41,6.24,2.18,1.29,1.26,2.32,3.14,8.68,15.26,11.1,21.23,14.13,28.73,15.59,38,.82,5.51.7,10.13-.5,18.76-1.23,8.72-1.25,10.41.29,13.87q1.04,2.51,2.58,2.85c3,.71,5.28-1.74,4.42-4.66-.82-2.7-.9-3.95.1-10.62,1.56-11.05,1.64-15.58.4-22.55-1.71-9.77-3.35-13.91-14.09-34.92-9.74-19.05-10.65-20.5-14.4-23.31-2.5-1.76-5.48-2.72-8.6-2.57-3.06.12-7.76,2.21-10.61,4.78l-1.96,1.8-1.61-1.74c-2.8-2.97-6.39-4.66-9.99-4.66-5.01.08-10.88,3.32-13.67,7.71l-.75,1.19-2.3-.9c-3.42-1.37-7.44-1.24-11.16.42-2.38.98-3.08,1.49-4.75,3.23l-1.96,1.96-7.95-15.55c-4.45-8.7-8.76-16.66-9.47-17.74-2.84-3.99-7.46-6.28-12.49-6.11-3.63.1-7.79,1.98-10.2,4.49Z"/>
    <text class="cls-7" transform="translate(909.46 144.75) rotate(23.02)"><tspan x="0" y="0">Tap!</tspan></text>
    <line class="cls-6" x1="925.8" y1="64.14" x2="909.46" y2="144.75"/>
    <line class="cls-6" x1="1165.18" y1="184.09" x2="1115.49" y2="236.03"/>
  </g>
</svg>