<?xml version="1.0" encoding="UTF-8"?>
<svg id="_レイヤー_2" data-name="レイヤー 2" xmlns="http://www.w3.org/2000/svg" viewBox="0 0 484.17 484.17">
  <defs>
    <style>
      .cls-1 {
        fill: #231815;
        stroke-width: 0px;
      }
    </style>
  </defs>
  <g id="_レイヤー_1-2" data-name="レイヤー 1">
    <polygon class="cls-1" points="148.97 0 148.97 60.45 60.45 60.45 60.45 148.98 0 148.98 0 0 148.97 0"/>
    <polygon class="cls-1" points="148.97 423.69 148.97 484.17 0 484.17 0 335.19 60.45 335.19 60.45 423.69 148.97 423.69"/>
    <polygon class="cls-1" points="484.17 0 484.17 148.98 423.69 148.98 423.69 60.45 335.19 60.45 335.19 0 484.17 0"/>
    <polygon class="cls-1" points="423.69 335.19 484.17 335.19 484.17 484.17 335.19 484.17 335.19 423.69 423.69 423.69 423.69 335.19"/>
    <rect class="cls-1" x="62.29" y="159.17" width="359.6" height="37.24"/>
  </g>
</svg>