<?xml version="1.0" encoding="UTF-8"?>
<svg id="_レイヤー_2" data-name="レイヤー 2" xmlns="http://www.w3.org/2000/svg" viewBox="0 0 595.28 355.13">
  <defs>
    <style>
      .cls-1, .cls-2 {
        stroke-width: 0px;
      }

      .cls-2 {
        fill: red;
      }

      .cls-3 {
        fill: #b3b3b3;
      }

      .cls-3, .cls-4 {
        stroke: #b3b3b3;
        stroke-miterlimit: 10;
        stroke-width: 4px;
      }

      .cls-4 {
        fill: none;
      }
    </style>
  </defs>
  <g id="_レイヤー_1-2" data-name="レイヤー 1">
    <g id="name">
      <path class="cls-1" d="m482.63,120.55h-60.44c-7.58,0-13.74,6.16-13.74,13.75v74.25h9.16v-33h69.6v33h9.16v-74.25c0-7.59-6.15-13.75-13.74-13.75Zm4.58,45.84h-69.6v-28.42c0-5.06,4.1-9.17,9.16-9.17h51.29c5.06,0,9.16,4.11,9.16,9.17v28.42Z"/>
      <path class="cls-1" d="m581.54,120.55h-74.18v55h74.18c7.58,0,13.74-6.16,13.74-13.75v-27.5c0-7.59-6.15-13.75-13.74-13.75Zm3.66,36.67c0,5.06-4.1,9.17-9.16,9.17h-56.78v-37.59h56.78c5.06,0,9.16,4.11,9.16,9.17v19.25Z"/>
      <polygon class="cls-1" points="595.28 208.56 584.29 208.56 552.24 176.47 519.27 176.47 519.27 208.56 507.36 208.56 507.36 175.55 563.23 175.55 579.25 191.55 595.28 208.56"/>
      <polygon class="cls-1" points="399.37 208.56 390.14 208.56 359.92 178.3 340.68 178.3 340.68 208.56 339.77 208.56 339.77 137.97 340.68 137.97 340.68 168.22 359.92 168.22 390.14 137.97 399.34 137.97 382.81 155.47 365.41 172.8 382.81 190.58 399.37 208.56"/>
      <path class="cls-1" d="m304.97,137.97h-59.53v10.08h55.86c5.06,0,9.16,4.11,9.16,9.17v11h-65.02v26.58c0,7.59,6.15,13.75,13.74,13.75h59.53v-56.84c0-7.59-6.15-13.75-13.74-13.75Zm5.49,61.42h-46.71c-5.06,0-9.16-4.11-9.16-9.17v-11.92h55.86v21.08Z"/>
      <path class="cls-1" d="m106.23,137.97h-59.53v10.08h55.86c5.06,0,9.16,4.11,9.16,9.17v11H46.71v26.58c0,7.59,6.15,13.75,13.74,13.75h59.53v-56.84c0-7.59-6.15-13.75-13.74-13.75Zm5.49,61.42h-46.71c-5.06,0-9.16-4.11-9.16-9.17v-11.92h55.86v21.08Z"/>
      <path class="cls-1" d="m237.2,151.72v57.75h-12.82v-52.25c0-5.06-4.1-9.17-9.16-9.17h-17.4c-5.06,0-9.16,4.11-9.16,9.17v52.25h-10.99v-53.17c0-5.06-4.1-9.17-9.16-9.17h-18.32c-5.06,0-9.16,4.11-9.16,9.17v53.17h-12.82v-71.5h95.24c7.58,0,13.74,6.16,13.74,13.75Z"/>
      <path class="cls-1" d="m0,114.13h11.91v95.34h-1.67C4.59,209.47,0,204.88,0,199.23v-85.1H0Z"/>
      <rect class="cls-1" x="11.91" y="197.56" width="27.47" height="11.92"/>
      <rect class="cls-1" x="11.91" y="137.97" width="27.47" height="10.08"/>
      <rect class="cls-1" x="331.53" y="114.13" width="9.16" height="94.42"/>
    </g>
  </g>
  <g id="_レイヤー_2-2" data-name="レイヤー 2">
    <g id="name-2" data-name="name">
      <path class="cls-2" d="m260.85,137.97h-15.41v10.08h23.25l-7.84-10.08Zm47.72,61.42h-44.81c-5.06,0-9.16-4.11-9.16-9.17v-11.92h37.59l-7.83-10.08h-38.91v26.58c0,7.59,6.15,13.75,13.73,13.75h56.52l-7.12-9.17Z"/>
      <path class="cls-2" d="m106.23,137.97h-56.59l7.83,10.08h45.1c5.06,0,9.16,4.11,9.16,9.17v11h-38.58l7.83,10.08h30.75v21.08h-14.37l7.12,9.17h15.49v-56.83c0-7.59-6.15-13.75-13.74-13.75Z"/>
      <path class="cls-2" d="m237.19,151.72v57.75h-12.82v-52.25c0-5.06-4.1-9.17-9.16-9.17h-17.4c-5.05,0-9.16,4.11-9.16,9.17v52.25h-10.98v-53.16c0-5.06-4.11-9.17-9.16-9.17h-18.32c-5.06,0-9.16,4.11-9.16,9.17v53.16h-12.83v-71.5h95.25c7.58,0,13.73,6.16,13.73,13.75Z"/>
    </g>
  </g>
  <g id="_レイヤー3" data-name="レイヤー3">
    <g id="smartphone">
      <rect class="cls-4" x="102.33" y="14.13" width="167.37" height="326.87" rx="12" ry="12" transform="translate(-69.82 151.46) rotate(-37.84)"/>
      <path class="cls-3" d="m45.18,47.16h89.33v5.81c0,4.42-3.58,8-8,8H53.18c-4.42,0-8-3.58-8-8v-5.81h0Z" transform="translate(-14.27 66.49) rotate(-37.84)"/>
    </g>
  </g>
  <g id="_レイヤー_4" data-name="レイヤー 4">
    <g>
      <path class="cls-1" d="m14.45,226.03v1.02c0,.32-.11.6-.34.83s-.5.35-.82.35H3.98c-.32,0-.59-.12-.82-.35s-.34-.51-.34-.83v-1.02c0-.32.11-.59.34-.82.22-.22.5-.34.82-.34h9.32c.29,0,.56.11.8.32.24.22.36.49.36.83Z"/>
      <path class="cls-1" d="m36.91,233.63l4.65-15.81c.19-.57.57-.86,1.17-.86s.94.24,1.08.73l4.61,16.05c.04.12.05.23.05.34,0,.32-.11.59-.33.82-.22.22-.47.34-.76.34-.6,0-.99-.28-1.15-.84l-.91-3.13h-5.29l-1.01,3.36c-.03.15-.14.29-.35.42s-.42.2-.66.2c-.34,0-.62-.11-.84-.34-.22-.23-.33-.51-.33-.84,0-.14.02-.28.07-.43Zm5.8-11.32l-1.98,6.61h3.91l-1.93-6.61Z"/>
      <path class="cls-1" d="m53.82,231.78v-13.63c0-.32.11-.6.34-.83.23-.23.5-.35.81-.35s.58.12.81.34c.23.23.34.5.34.81v13.65c0,.3.11.57.34.79.23.23.5.34.81.34h4.73c.32,0,.59-.11.82-.33.22-.22.34-.49.34-.8v-13.63c0-.33.11-.61.34-.84.22-.23.5-.34.82-.34s.59.12.82.34c.22.23.34.51.34.84v13.6c0,.95-.34,1.77-1.02,2.46s-1.5,1.03-2.44,1.03h-4.73c-.95,0-1.77-.34-2.45-1.02-.68-.68-1.02-1.49-1.02-2.45Z"/>
      <path class="cls-1" d="m77.56,216.97h3.84c.32,0,.59.11.82.34s.34.5.34.82c0,.34-.12.62-.37.85s-.51.34-.79.34h-3.66c-.36,0-.67.16-.94.5l-3.24,4.17c-.27.33-.41.79-.41,1.38v6.4c0,.33.11.61.34.84.22.23.5.34.82.34h4.7c.31,0,.58-.12.81-.34.23-.23.34-.5.34-.81v-2.5h-2.39c-.33,0-.6-.11-.83-.34-.22-.22-.33-.5-.33-.82s.11-.59.33-.82c.22-.22.5-.34.83-.34h4.7v4.81c0,.95-.34,1.77-1.02,2.45-.68.68-1.49,1.02-2.45,1.02h-4.7c-.96,0-1.79-.34-2.47-1.02-.68-.68-1.02-1.49-1.02-2.45v-6.39c0-1.15.31-2.11.92-2.9l3.41-4.33c.25-.33.59-.61,1.04-.84.44-.23.91-.34,1.38-.34Z"/>
      <path class="cls-1" d="m92.52,224.15v-.59l-2.39-3.41v13.94c0,.32-.11.59-.34.82-.23.22-.5.34-.82.34s-.59-.11-.82-.34c-.23-.23-.34-.5-.34-.81v-17.12h2.99l2.84,4.14,2.93-4.14h2.93v17.12c0,.32-.12.59-.35.82s-.51.34-.83.34-.58-.11-.81-.34c-.23-.23-.34-.5-.34-.81v-13.89l-2.34,3.3v.65c0,.31-.11.58-.34.81-.23.23-.5.34-.81.34s-.59-.11-.82-.34-.34-.5-.34-.81Z"/>
      <path class="cls-1" d="m115.36,219.31h-8.17v5.62h3.52c.31,0,.58.11.81.34.23.23.34.5.34.81,0,.33-.11.61-.34.84-.22.23-.5.34-.82.34h-3.52v5.67h8.2c.31,0,.58.11.81.34.23.23.34.5.34.82s-.12.59-.35.82c-.23.22-.51.34-.83.34h-10.48v-18.27h10.48c.32,0,.6.12.83.35.23.23.35.51.35.83s-.12.58-.35.81c-.23.23-.51.34-.83.34Z"/>
      <path class="cls-1" d="m133.52,218.15v17.09h-3.1l-6.23-14.19v13.04c0,.32-.11.59-.34.82s-.5.34-.82.34-.59-.11-.82-.34-.34-.5-.34-.82v-17.12h3.05l6.24,14.16v-12.98c0-.32.12-.6.35-.83.23-.23.51-.35.83-.35s.59.12.82.34c.22.23.34.51.34.84Z"/>
      <path class="cls-1" d="m138.87,220.12v-3.12h11.66v3.15c0,.32-.11.59-.34.82s-.5.34-.81.34-.6-.12-.83-.34c-.23-.23-.35-.5-.35-.81v-.84h-2.34v14.78c0,.32-.11.59-.34.82-.23.22-.5.34-.81.34-.33,0-.61-.11-.84-.34s-.34-.5-.34-.82v-14.78h-2.34v.81c0,.32-.11.59-.34.82-.22.23-.5.34-.82.34s-.59-.11-.82-.34c-.22-.22-.34-.5-.34-.82Z"/>
      <path class="cls-1" d="m166.38,219.31h-8.17v5.62h3.52c.31,0,.58.11.81.34.23.23.34.5.34.81,0,.33-.11.61-.34.84-.22.23-.5.34-.82.34h-3.52v5.67h8.2c.31,0,.58.11.81.34.23.23.34.5.34.82s-.12.59-.35.82c-.23.22-.51.34-.83.34h-10.48v-18.27h10.48c.32,0,.6.12.83.35.23.23.35.51.35.83s-.12.58-.35.81c-.23.23-.51.34-.83.34Z"/>
      <path class="cls-1" d="m174.04,216.97h4.57c.6,0,1.18.2,1.74.58.56.38.98.83,1.24,1.36l2.28,4.62c.43.83.65,1.71.65,2.61,0,.84-.23,1.71-.69,2.6l-2.3,4.57c-.29.59-.71,1.06-1.27,1.41-.55.35-1.16.53-1.84.53h-4.41c-.32,0-.59-.11-.82-.34-.23-.23-.34-.5-.34-.81s.11-.6.34-.83c.22-.23.5-.35.82-.35h1.21v-13.6h-1.18c-.32,0-.59-.12-.82-.35-.22-.23-.34-.51-.34-.83s.11-.58.34-.81c.22-.23.5-.34.82-.34Zm3.49,2.34v13.63h.81c.51,0,.9-.25,1.15-.76l2.28-4.54c.28-.6.43-1.09.43-1.5,0-.5-.12-.98-.34-1.43l-2.36-4.7c-.25-.47-.65-.7-1.21-.7h-.76Z"/>
      <path class="cls-1" d="m206.96,234.09v-17.12h8.17c.94,0,1.76.34,2.44,1.03.68.69,1.02,1.51,1.02,2.46v1.32c0,.96-.34,1.79-1.02,2.47-.68.68-1.49,1.02-2.45,1.02h-1.47l4.72,8.11c.15.24.22.48.22.71,0,.31-.12.58-.36.8-.24.22-.51.34-.81.34-.46,0-.81-.2-1.05-.62l-5.41-9.35h-1.67v8.81c0,.32-.12.59-.35.82s-.51.34-.83.34-.59-.11-.82-.34c-.23-.22-.34-.5-.34-.82Zm2.31-11.12h5.86c.32,0,.59-.11.82-.34.22-.22.34-.5.34-.82v-1.35c0-.32-.11-.59-.34-.82-.23-.22-.5-.34-.82-.34h-5.86v3.66Z"/>
      <path class="cls-1" d="m234.42,219.31h-8.17v5.62h3.52c.31,0,.58.11.81.34.23.23.34.5.34.81,0,.33-.11.61-.34.84-.22.23-.5.34-.82.34h-3.52v5.67h8.2c.31,0,.58.11.81.34.23.23.34.5.34.82s-.12.59-.35.82c-.23.22-.51.34-.83.34h-10.48v-18.27h10.48c.32,0,.6.12.83.35.23.23.35.51.35.83s-.12.58-.35.81c-.23.23-.51.34-.83.34Z"/>
      <path class="cls-1" d="m241.02,233.63l4.65-15.81c.19-.57.57-.86,1.17-.86s.94.24,1.08.73l4.61,16.05c.04.12.05.23.05.34,0,.32-.11.59-.33.82-.22.22-.47.34-.76.34-.6,0-.99-.28-1.15-.84l-.91-3.13h-5.29l-1.01,3.36c-.03.15-.14.29-.35.42s-.42.2-.66.2c-.34,0-.62-.11-.84-.34-.22-.23-.33-.51-.33-.84,0-.14.02-.28.07-.43Zm5.8-11.32l-1.98,6.61h3.91l-1.93-6.61Z"/>
      <path class="cls-1" d="m257.96,235.24v-17.12c0-.31.11-.58.34-.81.23-.23.5-.34.81-.34s.58.12.81.34c.23.23.34.5.34.81v14.81h8.17c.32,0,.6.11.83.34.23.23.35.5.35.82s-.12.59-.35.82c-.23.22-.51.34-.83.34h-10.48Z"/>
      <path class="cls-1" d="m276.1,216.97h9.35c.3,0,.57.12.8.34.23.23.35.5.35.81s-.11.6-.34.83c-.23.23-.5.35-.81.35h-3.49v13.63h3.49c.32,0,.59.11.82.34.22.23.34.5.34.82s-.11.59-.34.82-.5.34-.81.34h-9.35c-.32,0-.59-.11-.82-.34s-.34-.5-.34-.82.11-.59.34-.82c.22-.22.5-.34.82-.34h3.55v-13.63h-3.55c-.32,0-.59-.11-.82-.34s-.34-.5-.34-.81c0-.33.11-.61.34-.84.22-.23.5-.34.82-.34Z"/>
      <path class="cls-1" d="m291.95,220.12v-3.12h11.66v3.15c0,.32-.12.59-.34.82s-.5.34-.81.34-.6-.12-.83-.34c-.23-.23-.35-.5-.35-.81v-.84h-2.34v14.78c0,.32-.11.59-.34.82s-.5.34-.81.34c-.33,0-.61-.11-.84-.34s-.34-.5-.34-.82v-14.78h-2.34v.81c0,.32-.11.59-.34.82-.22.23-.5.34-.82.34s-.59-.11-.82-.34c-.22-.22-.34-.5-.34-.82Z"/>
      <path class="cls-1" d="m316,226.47v7.61c0,.32-.12.59-.34.82-.23.22-.5.34-.81.34-.33,0-.61-.11-.84-.34-.23-.22-.34-.5-.34-.82v-7.61l-4.65-5.88v-2.45c0-.33.11-.61.34-.84.22-.23.5-.34.82-.34s.6.12.83.35c.23.24.35.51.35.84v1.59l3.47,4.45,3.52-4.45v-1.6c0-.32.12-.6.34-.83.23-.23.5-.35.81-.35s.57.11.8.32c.23.22.35.5.35.86v2.42l-4.65,5.9Z"/>
      <path class="cls-1" d="m350.63,226.04l3.11,3.11c.24.22.36.5.36.83,0,.31-.12.59-.35.83-.23.24-.51.36-.82.36s-.6-.12-.83-.36l-3.14-3.12-3.09,3.12c-.23.22-.5.33-.82.33s-.6-.11-.82-.34c-.22-.23-.32-.5-.32-.81s.11-.58.33-.8l3.11-3.14-3.11-3.09c-.21-.22-.32-.48-.32-.78,0-.33.12-.61.35-.85.23-.23.51-.35.83-.35s.59.11.8.32l3.09,3.14,3.11-3.11c.23-.23.51-.34.84-.34s.59.11.81.34c.22.23.33.49.33.8,0,.33-.11.61-.34.84l-3.11,3.09Z"/>
      <path class="cls-1" d="m379.63,216.97h6.02c.73,0,1.43.31,2.09.93.66.62.98,1.37.98,2.25,0,.33-.12.61-.35.84-.23.23-.49.34-.78.34-.39,0-.66-.09-.81-.27-.15-.18-.29-.51-.42-1-.13-.49-.43-.73-.89-.73h-5.72c-.28,0-.41.09-.41.27,0,.11.05.24.17.39l8.59,10.95c.41.53.62,1.1.62,1.7,0,.69-.25,1.29-.75,1.81-.5.52-1.06.78-1.67.78h-6.23c-.82,0-1.54-.31-2.15-.94-.61-.63-.92-1.32-.92-2.07,0-.86.4-1.29,1.21-1.29.31,0,.58.11.8.34s.33.49.33.79c0,.25.08.45.25.62.17.17.38.25.64.25h5.75c.25,0,.37-.1.37-.29,0-.09-.05-.21-.17-.36l-8.57-10.95c-.41-.52-.61-1.09-.61-1.7,0-.71.26-1.34.77-1.86s1.13-.79,1.86-.79Z"/>
      <path class="cls-1" d="m400.37,232.93h4.17c.32,0,.6.11.83.34.23.23.35.5.35.82s-.12.59-.35.82c-.23.22-.51.34-.83.34h-4.32c-.55,0-1.12-.17-1.71-.52-.59-.35-1-.74-1.22-1.17l-2.67-5.16c-.36-.74-.54-1.5-.54-2.28,0-.86.17-1.61.51-2.24l2.7-5.1c.26-.48.66-.9,1.2-1.26.54-.36,1.06-.54,1.57-.54h4.56c.32,0,.59.12.82.34.22.23.34.5.34.81s-.11.6-.34.83c-.22.23-.5.35-.82.35h-4.4c-.37,0-.67.22-.89.65l-2.56,4.78c-.2.38-.3.82-.3,1.33,0,.54.11,1.02.33,1.43l2.45,4.7c.23.49.6.73,1.13.73Z"/>
      <path class="cls-1" d="m410.99,234.09v-15.96c0-.31.11-.58.34-.81.22-.23.5-.34.82-.34s.58.12.81.34c.23.23.34.5.34.81v6.81h7.04v-6.81c0-.31.11-.58.34-.81.22-.23.5-.34.82-.34s.59.12.82.34c.22.23.34.51.34.84v15.94c0,.31-.12.58-.35.81-.23.23-.5.34-.8.34-.33,0-.61-.11-.83-.34s-.33-.5-.33-.82v-6.85h-7.01v6.85c0,.31-.12.58-.35.81s-.51.34-.83.34-.58-.11-.81-.34c-.23-.22-.34-.5-.34-.82Z"/>
      <path class="cls-1" d="m436.6,218.66l2.54,5.18c.36.71.54,1.47.54,2.3s-.18,1.57-.54,2.28l-2.54,5.13c-.54,1.13-1.46,1.69-2.75,1.69-.61,0-1.17-.16-1.66-.48-.49-.32-.86-.72-1.11-1.21l-2.56-5.13c-.34-.67-.51-1.43-.51-2.28s.17-1.62.51-2.3l2.56-5.18c.58-1.13,1.5-1.69,2.76-1.69s2.2.56,2.75,1.69Zm-3.52,1.16l-2.39,4.87c-.22.49-.33.96-.33,1.43,0,.5.11.99.33,1.44l2.46,4.92c.13.3.36.45.7.45.29,0,.52-.15.67-.45l2.48-4.92c.23-.49.34-.97.34-1.44,0-.5-.12-.98-.34-1.43l-2.42-4.87c-.16-.36-.4-.54-.73-.54s-.59.18-.77.54Z"/>
      <path class="cls-1" d="m453.61,218.66l2.54,5.18c.36.71.54,1.47.54,2.3s-.18,1.57-.54,2.28l-2.54,5.13c-.54,1.13-1.46,1.69-2.75,1.69-.61,0-1.17-.16-1.66-.48-.49-.32-.86-.72-1.11-1.21l-2.56-5.13c-.34-.67-.51-1.43-.51-2.28s.17-1.62.51-2.3l2.56-5.18c.58-1.13,1.5-1.69,2.76-1.69s2.2.56,2.75,1.69Zm-3.52,1.16l-2.39,4.87c-.22.49-.33.96-.33,1.43,0,.5.11.99.33,1.44l2.46,4.92c.13.3.36.45.7.45.29,0,.52-.15.67-.45l2.48-4.92c.23-.49.34-.97.34-1.44,0-.5-.12-.98-.34-1.43l-2.42-4.87c-.16-.36-.4-.54-.73-.54s-.59.18-.77.54Z"/>
      <path class="cls-1" d="m462.07,235.24v-17.12c0-.31.11-.58.34-.81s.5-.34.81-.34.58.12.81.34c.23.23.34.5.34.81v14.81h8.17c.32,0,.6.11.83.34.23.23.35.5.35.82s-.12.59-.35.82c-.23.22-.51.34-.83.34h-10.48Z"/>
      <path class="cls-1" d="m496.06,220.12v-3.12h11.66v3.15c0,.32-.12.59-.34.82-.23.22-.5.34-.81.34s-.6-.12-.83-.34c-.23-.23-.35-.5-.35-.81v-.84h-2.34v14.78c0,.32-.11.59-.34.82-.23.22-.5.34-.81.34-.33,0-.61-.11-.84-.34-.23-.22-.34-.5-.34-.82v-14.78h-2.34v.81c0,.32-.11.59-.34.82-.22.23-.5.34-.82.34s-.59-.11-.82-.34c-.22-.22-.34-.5-.34-.82Z"/>
      <path class="cls-1" d="m521.65,218.66l2.54,5.18c.36.71.54,1.47.54,2.3s-.18,1.57-.54,2.28l-2.54,5.13c-.54,1.13-1.46,1.69-2.75,1.69-.61,0-1.17-.16-1.66-.48-.49-.32-.86-.72-1.11-1.21l-2.56-5.13c-.34-.67-.51-1.43-.51-2.28s.17-1.62.51-2.3l2.56-5.18c.58-1.13,1.5-1.69,2.76-1.69s2.2.56,2.75,1.69Zm-3.52,1.16l-2.39,4.87c-.22.49-.33.96-.33,1.43,0,.5.11.99.33,1.44l2.46,4.92c.13.3.36.45.7.45.29,0,.52-.15.67-.45l2.48-4.92c.23-.49.34-.97.34-1.44,0-.5-.12-.98-.34-1.43l-2.42-4.87c-.16-.36-.4-.54-.73-.54s-.59.18-.77.54Z"/>
      <path class="cls-1" d="m530.08,231.78v-13.63c0-.32.12-.6.34-.83.23-.23.5-.35.81-.35s.58.12.81.34c.23.23.34.5.34.81v13.65c0,.3.11.57.34.79.23.23.5.34.81.34h4.73c.32,0,.59-.11.82-.33.22-.22.34-.49.34-.8v-13.63c0-.33.11-.61.34-.84.22-.23.5-.34.82-.34s.59.12.82.34c.22.23.34.51.34.84v13.6c0,.95-.34,1.77-1.02,2.46-.68.69-1.5,1.03-2.44,1.03h-4.73c-.95,0-1.77-.34-2.45-1.02-.68-.68-1.02-1.49-1.02-2.45Z"/>
      <path class="cls-1" d="m547.14,234.09v-17.12h8.17c.94,0,1.76.34,2.44,1.03.68.69,1.02,1.51,1.02,2.46v1.32c0,.96-.34,1.79-1.02,2.47-.68.68-1.49,1.02-2.45,1.02h-1.47l4.72,8.11c.15.24.22.48.22.71,0,.31-.12.58-.36.8-.24.22-.51.34-.81.34-.46,0-.81-.2-1.04-.62l-5.41-9.35h-1.67v8.81c0,.32-.12.59-.35.82-.23.22-.51.34-.83.34s-.59-.11-.82-.34-.34-.5-.34-.82Zm2.31-11.12h5.86c.32,0,.59-.11.82-.34s.34-.5.34-.82v-1.35c0-.32-.11-.59-.34-.82s-.5-.34-.82-.34h-5.86v3.66Z"/>
      <path class="cls-1" d="m592.76,226.03v1.02c0,.32-.11.6-.34.83-.23.23-.5.35-.82.35h-9.32c-.32,0-.59-.12-.82-.35-.23-.23-.34-.51-.34-.83v-1.02c0-.32.11-.59.34-.82s.5-.34.82-.34h9.32c.29,0,.56.11.8.32.24.22.36.49.36.83Z"/>
    </g>
  </g>
</svg>