<?xml version="1.0" encoding="UTF-8"?>
<svg id="_レイヤー_2" data-name="レイヤー 2" xmlns="http://www.w3.org/2000/svg" viewBox="0 0 595.32 355.13">
  <defs>
    <style>
      .cls-1 {
        fill: #b3b3b3;
      }

      .cls-1, .cls-2 {
        stroke: #b3b3b3;
        stroke-miterlimit: 10;
        stroke-width: 4px;
      }

      .cls-2 {
        fill: none;
      }

      .cls-3 {
        font-family: OCRAExtended, 'OCR A Extended';
        font-size: 28.16px;
      }

      .cls-4 {
        fill: red;
      }
    </style>
  </defs>
  <g id="_レイヤー_1-2" data-name="レイヤー 1">
    <g id="name">
      <path d="m482.66,120.55h-60.44c-7.58,0-13.74,6.16-13.74,13.75v74.25h9.16v-33h69.6v33h9.16v-74.25c0-7.59-6.15-13.75-13.74-13.75Zm4.58,45.84h-69.6v-28.42c0-5.06,4.1-9.17,9.16-9.17h51.29c5.06,0,9.16,4.11,9.16,9.17v28.42Z"/>
      <path d="m581.57,120.55h-74.18v55h74.18c7.58,0,13.74-6.16,13.74-13.75v-27.5c0-7.59-6.15-13.75-13.74-13.75Zm3.66,36.67c0,5.06-4.1,9.17-9.16,9.17h-56.78v-37.59h56.78c5.06,0,9.16,4.11,9.16,9.17v19.25Z"/>
      <polygon points="595.3 208.56 584.31 208.56 552.26 176.47 519.29 176.47 519.29 208.56 507.39 208.56 507.39 175.55 563.25 175.55 579.28 191.55 595.3 208.56"/>
      <polygon points="399.39 208.56 390.16 208.56 359.94 178.3 340.71 178.3 340.71 208.56 339.79 208.56 339.79 137.97 340.71 137.97 340.71 168.22 359.94 168.22 390.16 137.97 399.37 137.97 382.84 155.47 365.43 172.8 382.84 190.58 399.39 208.56"/>
      <path d="m304.99,137.97h-59.53v10.08h55.86c5.06,0,9.16,4.11,9.16,9.17v11h-65.02v26.58c0,7.59,6.15,13.75,13.74,13.75h59.53v-56.84c0-7.59-6.15-13.75-13.74-13.75Zm5.49,61.42h-46.71c-5.06,0-9.16-4.11-9.16-9.17v-11.92h55.86v21.08Z"/>
      <path d="m106.26,137.97h-59.53v10.08h55.86c5.06,0,9.16,4.11,9.16,9.17v11H46.73v26.58c0,7.59,6.15,13.75,13.74,13.75h59.53v-56.84c0-7.59-6.15-13.75-13.74-13.75Zm5.49,61.42h-46.71c-5.06,0-9.16-4.11-9.16-9.17v-11.92h55.86v21.08Z"/>
      <path d="m237.22,151.72v57.75h-12.82v-52.25c0-5.06-4.1-9.17-9.16-9.17h-17.4c-5.06,0-9.16,4.11-9.16,9.17v52.25h-10.99v-53.17c0-5.06-4.1-9.17-9.16-9.17h-18.32c-5.06,0-9.16,4.11-9.16,9.17v53.17h-12.82v-71.5h95.24c7.58,0,13.74,6.16,13.74,13.75Z"/>
      <path d="m.02,114.13h11.91v95.34h-1.67C4.61,209.47.02,204.88.02,199.23v-85.1H.02Z"/>
      <rect x="11.93" y="197.56" width="27.47" height="11.92"/>
      <rect x="11.93" y="137.97" width="27.47" height="10.08"/>
      <rect x="331.55" y="114.13" width="9.16" height="94.42"/>
    </g>
  </g>
  <g id="_レイヤー_2-2" data-name="レイヤー 2">
    <g id="name-2" data-name="name">
      <path class="cls-4" d="m260.87,137.97h-15.41v10.08h23.25l-7.84-10.08Zm47.72,61.42h-44.81c-5.06,0-9.16-4.11-9.16-9.17v-11.92h37.59l-7.83-10.08h-38.91v26.58c0,7.59,6.15,13.75,13.73,13.75h56.52l-7.12-9.17Z"/>
      <path class="cls-4" d="m106.26,137.97h-56.59l7.83,10.08h45.1c5.06,0,9.16,4.11,9.16,9.17v11h-38.58l7.83,10.08h30.75v21.08h-14.37l7.12,9.17h15.49v-56.83c0-7.59-6.15-13.75-13.74-13.75Z"/>
      <path class="cls-4" d="m237.22,151.72v57.75h-12.82v-52.25c0-5.06-4.1-9.17-9.16-9.17h-17.4c-5.05,0-9.16,4.11-9.16,9.17v52.25h-10.98v-53.16c0-5.06-4.11-9.17-9.16-9.17h-18.32c-5.06,0-9.16,4.11-9.16,9.17v53.16h-12.83v-71.5h95.25c7.58,0,13.73,6.16,13.73,13.75Z"/>
    </g>
  </g>
  <g id="_レイヤー3" data-name="レイヤー3">
    <g id="smartphone">
      <rect class="cls-2" x="102.35" y="14.13" width="167.37" height="326.87" rx="12" ry="12" transform="translate(-69.81 151.48) rotate(-37.84)"/>
      <path class="cls-1" d="m45.2,47.16h89.33v5.81c0,4.42-3.58,8-8,8H53.2c-4.42,0-8-3.58-8-8v-5.81h0Z" transform="translate(-14.27 66.5) rotate(-37.84)"/>
    </g>
  </g>
  <g id="_レイヤー_4" data-name="レイヤー 4">
    <text class="cls-3" transform="translate(0 235.24)"><tspan x="0" y="0">- AUGMENTED REALITY × SCHOOL TOUR -</tspan></text>
  </g>
</svg>