<?xml version="1.0" encoding="UTF-8"?>
<svg id="_レイヤー_2" data-name="レイヤー 2" xmlns="http://www.w3.org/2000/svg" viewBox="0 0 650 104">
  <defs>
    <style>
      .cls-1 {
        fill: #fff;
        stroke-width: 0px;
      }
    </style>
  </defs>
  <g id="_レイヤー_1-2" data-name="レイヤー 1">
    <path class="cls-1" d="m527,7h-66c-8.28,0-15,6.72-15,15v81h10v-36h76v36h10V22c0-8.28-6.72-15-15-15Zm5,50h-76v-31c0-5.52,4.48-10,10-10h56c5.52,0,10,4.48,10,10v31Z"/>
    <path class="cls-1" d="m635,7h-81v60h81c8.28,0,15-6.72,15-15v-30c0-8.28-6.72-15-15-15Zm4,40c0,5.52-4.48,10-10,10h-62V16h62c5.52,0,10,4.48,10,10v21Z"/>
    <polygon class="cls-1" points="650 103 638 103 603 68 567 68 567 103 554 103 554 67 615 67 632.5 84.45 650 103"/>
    <polygon class="cls-1" points="436.08 103 426 103 393 70 372 70 372 103 371 103 371 26 372 26 372 59 393 59 426 26 436.05 26 418 45.09 399 64 418 83.39 436.08 103"/>
    <path class="cls-1" d="m333,26h-65v11h61c5.52,0,10,4.48,10,10v12h-71v29c0,8.28,6.72,15,15,15h65v-62c0-8.28-6.72-15-15-15Zm6,67h-51c-5.52,0-10-4.48-10-10v-13h61v23Z"/>
    <path class="cls-1" d="m116,26H51v11h61c5.52,0,10,4.48,10,10v12H51v29c0,8.28,6.72,15,15,15h65v-62c0-8.28-6.72-15-15-15Zm6,67h-51c-5.52,0-10-4.48-10-10v-13h61v23Z"/>
    <path class="cls-1" d="m259,41v63h-14v-57c0-5.52-4.48-10-10-10h-19c-5.52,0-10,4.48-10,10v57h-12v-58c0-5.52-4.48-10-10-10h-20c-5.52,0-10,4.48-10,10v58h-14V26h104c8.28,0,15,6.72,15,15Z"/>
    <path class="cls-1" d="m0,0h13v104h0c-7.17,0-13-5.83-13-13V0h0Z"/>
    <rect class="cls-1" x="13" y="91" width="30" height="13"/>
    <rect class="cls-1" x="13" y="26" width="30" height="11"/>
    <rect class="cls-1" x="362" width="10" height="103"/>
  </g>
</svg>